<svg id="Layer_1" data-name="Layer 1" xmlns="http://www.w3.org/2000/svg" viewBox="0 0 34.03 44.98"><defs><style>.cls-1{fill:#606060;}</style></defs><title>map-2</title><g id="Page-1"><g id="map-2"><path id="icon" class="cls-1" d="M34,41.62c-.53-5-.41-9.83-2-14.46-.52-1.56.3-4.15-1.79-4.44-2.32-.33-2.08,2.49-3,3.94a1.34,1.34,0,0,0,0,.31c-.36,1.29-.59,1.44-1.72.32C22.25,24,22.64,20.73,27,19.19a5.84,5.84,0,0,0,3.81-3.78c.21-.56.08-1.37.84-1.56,3-.74.47-1.47-.08-1.92a4.59,4.59,0,0,0-3.23-.82c-3.33.13-6.67.1-10,0-4.17-.11-4.87-.84-5-5a4.51,4.51,0,0,0-.51-2.42c-.37-.58-.76-1.12-1.37-.37-1.58,2-2.42.87-3.21-.7-.4-.8-.57-2.44-1.82-.48-.38.59-1.06.16-1.46-.49A3.23,3.23,0,0,0,2.83,0c-1,.62.38,1.72-.71,2.48-2.53,1.76-1.81,3.35.37,5A9,9,0,0,0,5.16,8.9,2.3,2.3,0,0,1,6,10.14a.53.53,0,0,1-.61.77c-1.86-.57-2.24.9-3.24,1.92-2.85,2.86-3,3.23.75,4.57,2.47.88,2.42,2.06,1.54,3.91A2.39,2.39,0,0,0,4.34,24c2.3,3.36,2.21,7.44,3.12,11.2.85,3.51,2,4.14,4.93,1.89,1.12-.87,2-2.52,3,.09.32.79,1,.17,1.44-.35s.37-1.61,1.66-1.23c2.13.63,2.34-.92,2.58-2.47.08-.55-.62-1.27.65-1.69,3.58-1.17,7.07,1,6.53,4.77s1.85,6,2.83,8.82C32.78,44.21,28,39.52,34,41.62Z" transform="translate(-0.01 -0.01)"/></g></g></svg>