<svg id="Layer_1" data-name="Layer 1" xmlns="http://www.w3.org/2000/svg" viewBox="0 0 43 43"><defs><style>.cls-1{fill:#606060;}</style></defs><title>map-3</title><g id="Page-1"><g id="map-3"><path id="icon" class="cls-1" d="M40.31,9.51A10,10,0,0,0,35,12.21c-2.09,1.77-2.77,2.08-4.42.09-.78-.93-1.37-.69-1.34.24.07,2.29-1.11,1.76-2.38,1.35-2.12-.69-4.28-1.3-6.36-2.1-1-.39-2.89-1.2-2.48-1.89,1.44-2.43-.54-2.76-1.67-3.68-.73-.59-.34-1.11-.2-1.87C16.71.94,14.95-.68,12,.29a3,3,0,0,1-1.53.23c-2.8-.77-2.44,1-1.94,2.6C9.47,6,6.95,11.4,4.09,11.79s-2.7,1.6-1.32,3.4,1.37,2.58-1.12,2.44c-.78,0-1.81.18-1.65,1.27.45,3.11,3.31,4.83,6.57,4-.65,7.1,3.59,12.66,5.65,18.9.43,1.33,1.25,1.73,2.74.3,2.47-2.37,2.83-5.24,2.79-8.23a3.29,3.29,0,0,1,1.69-3.27c4.22-2.27,6.49-7.12,11.21-8.74.64-.22.29-1.18.16-1.76A20.88,20.88,0,0,1,30,17.44c-.11-.94.93-2.4,1.21-2,1.09,1.63,2.82.52,4.23,1.64-5.35,2.84,1.45,2.52.64,4.24,2.62-2.5,2.72-6.28,5.54-8.14.74-.5,1.76-1.14,1.21-1.54C42,11,42.31,9.27,40.31,9.51Z" transform="translate(0.02 -0.01)"/></g></g></svg>