<svg id="Layer_1" data-name="Layer 1" xmlns="http://www.w3.org/2000/svg" viewBox="0 0 54 31"><defs><style>.cls-1{fill:#606060;}</style></defs><title>map-1</title><g id="Page-1"><g id="map-1"><path id="icon" class="cls-1" d="M54,4.62l0,0c-.43-.43-3.38-.16-3.38-.16a.94.94,0,0,1-.07.16,1.25,1.25,0,0,1-.81.67C49,5.45,39,5.64,38.78,4.9a.69.69,0,0,0-.22-.3,2.32,2.32,0,0,0-1.44-.25l-.19.25a3.27,3.27,0,0,1-1.2,1c-.47.15-.58-.49-.52-1a2.57,2.57,0,0,1,.09-.44c.12-.39-1-1.73-2-2.4a1.41,1.41,0,0,0-1-.37C31.44,1.66,27.34,0,27.34,0H1.93s-.05.59-.14,1.1l0,.14a2,2,0,0,1-.15.52.13.13,0,0,1-.12.09l-.16-.09C1,1.5.16.8,0,1.21a.88.88,0,0,0,.09.55,8.39,8.39,0,0,1,.79,2v9.15a1.15,1.15,0,0,0,.5.86c.5.44,1.19.83,1.07,1.7a.21.21,0,0,1,0,.06c-.09,1,1.11,2.11,1.94,2.84l.6.55c.26.28.62.75,1,1.21.52.64,1.06,1.25,1.37,1.2.52-.09,1.48-.46,2.1.28s2.84,1.23,4,1.37h.67a8.66,8.66,0,0,1,3.4,0,1,1,0,0,1,.74.66,4,4,0,0,0,.5,1.09,7.59,7.59,0,0,0,1.16,1.4s.44-.74.7-1.29a.46.46,0,0,1,.08-.11.58.58,0,0,1,.7,0,3.43,3.43,0,0,1,1.32,2.14,3.62,3.62,0,0,0,.27.7,5.12,5.12,0,0,0,1.54,1.76,6.4,6.4,0,0,0,1.33.78s0-.33,0-.78,0-1.19,0-1.76c0-.19,0-.36,0-.51.09-1,3-1.95,3.49-2s4,1.58,4,1,.55-.86,1.2-1.31L35,24.5a.79.79,0,0,1,1,.26c.61.52,1.17,1.39,1.23,1,.09-.55,1.75-.28,1.92.37a13.55,13.55,0,0,1,.31,1.44,3.72,3.72,0,0,1,0,1,1.51,1.51,0,0,0,.27.79c.46.82,1.37,1.82,1.56,1.62a4.53,4.53,0,0,0,.3-1.62,7.75,7.75,0,0,0-.06-1.76,1.5,1.5,0,0,0-.33-.79,4,4,0,0,1-.66-2,7.55,7.55,0,0,1,0-1.76,1.42,1.42,0,0,1,.34-.9c.27-.22,1.25-1,2.27-1.94C43.8,19.58,44.47,19,45,18.4c.76-.79,1.21-1.44.86-1.58a1,1,0,0,1-.58-1.27c0-.45.16-1,.23-1.69a.63.63,0,0,1,0-.07c.2-1.54,1.22.32,1.65-1.78A1.92,1.92,0,0,1,47.8,11c1.18-1.05,3.45-1.05,3-1.34a.81.81,0,0,1-.27-.41,1.81,1.81,0,0,1,.54-1.81c.27-.22.81-.61,1.36-1C53.31,5.67,54.18,4.91,54,4.62Z" transform="translate(0)"/></g></g></svg>