<svg id="Layer_1" data-name="Layer 1" xmlns="http://www.w3.org/2000/svg" viewBox="0 0 48 48"><defs><style>.cls-1{fill:#fff;}</style></defs><title>play-1</title><path class="cls-1" d="M972.45,539.34l-17.6-12a.8.8,0,0,0-1.25.66v24a.8.8,0,0,0,.43.71.79.79,0,0,0,.82,0l17.6-12a.79.79,0,0,0,0-1.32ZM955.2,550.48v-21L970.58,540Zm0,0" transform="translate(-936 -516)"/><path class="cls-1" d="M960,516a24,24,0,1,0,24,24,24,24,0,0,0-24-24Zm0,46.4A22.4,22.4,0,1,1,982.4,540,22.42,22.42,0,0,1,960,562.4Zm0,0" transform="translate(-936 -516)"/></svg>